<svg width="564" height="140" viewBox="0 0 564 140" fill="none" xmlns="http://www.w3.org/2000/svg">
<g clip-path="url(#clip0_367_183)">
<path fill-rule="evenodd" clip-rule="evenodd" d="M85.1815 13.8779H81.9565V18.3879L85.1815 13.8779ZM94.9005 28.3261L105.232 13.8779H129.037V28.3261H94.9005ZM60.9893 75.7519L77.6665 52.4289V52.4559H122.485V65.8614H77.6665V93.8639H128.144V108.312H60.9893V75.7519Z" fill="#2C2C2C"/>
<path fill-rule="evenodd" clip-rule="evenodd" d="M79.572 0L0 108.197H19.8558L99.908 0H79.572Z" fill="#6A48F3"/>
<path d="M509.347 89.4372C512.221 91.0262 515.641 92.6143 519.606 94.2023C523.572 95.6913 528.33 96.4352 533.881 96.4352C535.765 96.4352 537.599 96.3362 539.383 96.1382C541.167 95.8402 542.704 95.4432 543.992 94.9462C545.38 94.3512 546.471 93.6062 547.264 92.7132C548.057 91.7202 548.453 90.5792 548.453 89.2882C548.453 87.4022 547.512 85.7652 545.628 84.3752C543.844 82.8863 540.721 81.3975 536.26 79.9085L530.759 78.2706C527.586 77.3773 524.662 76.335 521.986 75.1439C519.408 73.8535 517.128 72.3149 515.146 70.5282C513.262 68.7415 511.775 66.657 510.685 64.2747C509.594 61.8924 509.049 59.0635 509.049 55.7879C509.049 52.0159 509.694 48.8395 510.982 46.2587C512.37 43.5787 514.204 41.4445 516.484 39.8564C518.863 38.2682 521.639 37.1267 524.811 36.4318C527.983 35.737 531.353 35.3896 534.922 35.3896C539.383 35.3896 543.992 35.9355 548.751 37.0274C553.509 38.02 557.871 39.7075 561.836 42.0898L560.2 56.8302C559.011 56.0361 557.375 55.1923 555.293 54.2989C553.311 53.3063 551.08 52.413 548.602 51.6189C546.124 50.8248 543.596 50.1796 541.019 49.6833C538.441 49.0877 536.012 48.79 533.732 48.79C531.155 48.79 528.974 49.2863 527.19 50.2789C525.505 51.2716 524.662 52.959 524.662 55.3413C524.662 57.7236 525.653 59.7087 527.636 61.2969C529.619 62.8851 532.692 64.4236 536.855 65.9125L542.059 67.5504C544.934 68.4437 547.66 69.3867 550.238 70.3793C552.914 71.3719 555.244 72.6623 557.226 74.2505C559.308 75.8387 560.944 77.7743 562.133 80.0573C563.422 82.2411 564.066 85.0702 564.066 88.5442C564.066 92.5142 563.224 95.8892 561.538 98.6692C559.952 101.349 557.771 103.533 554.996 105.22C552.22 106.907 548.949 108.099 545.182 108.793C541.514 109.587 537.549 109.985 533.286 109.985C527.735 109.985 522.977 109.439 519.012 108.347C515.047 107.255 511.329 105.865 507.86 104.178L509.347 89.4372Z" fill="#2C2C2C"/>
<path d="M459.2 36.623V19.4208L474.827 16.3066V36.623H497.299V49.9695H475.124V94.6067H500.574V108.25H477.803C475.124 108.25 472.644 107.904 470.362 107.212C468.08 106.421 466.095 105.284 464.409 103.801C462.722 102.318 461.382 100.439 460.39 98.1657C459.497 95.8917 459.051 93.2217 459.051 90.1577V49.9695H445.061V36.623H459.2Z" fill="#2C2C2C"/>
<path d="M409.904 36.5561V47.6886C411.493 44.2251 413.927 41.3059 417.206 38.931C420.484 36.5561 424.309 35.2697 428.68 35.0717H430.468C432.157 34.9728 433.747 35.1212 435.237 35.517C436.827 35.8139 438.367 36.2097 439.857 36.7045V50.9541C438.168 50.1625 436.38 49.5687 434.492 49.1729C432.704 48.7771 430.866 48.5792 428.978 48.5792C426.594 48.5792 424.259 48.9255 421.974 49.6182C419.789 50.2119 417.802 51.152 416.014 52.4384C414.225 53.6259 412.785 55.2092 411.692 57.1883C410.599 59.0685 410.053 61.3444 410.053 64.0162V108.25H394.406V36.5561H409.904Z" fill="#2C2C2C"/>
<path d="M318.53 75.4068C318.827 78.3748 319.569 81.1449 320.755 83.7172C321.942 86.2896 323.523 88.5156 325.501 90.3956C327.577 92.1756 329.999 93.6106 332.768 94.6986C335.536 95.7866 338.7 96.3316 342.259 96.3316C347.598 96.3316 351.998 95.2426 355.459 93.0666C358.919 90.7906 361.638 87.9716 363.615 84.6076L376.666 90.8406C373.404 96.5786 368.905 101.229 363.171 104.79C357.436 108.253 350.317 109.984 341.814 109.984C336.08 109.984 330.79 109.045 325.946 107.165C321.2 105.285 317.097 102.713 313.636 99.4476C310.176 96.0836 307.506 92.1266 305.628 87.5756C303.749 83.0247 302.81 78.0285 302.81 72.5872C302.81 67.0469 303.749 62.0013 305.628 57.4504C307.605 52.8005 310.275 48.8432 313.636 45.5784C317.097 42.2146 321.151 39.6424 325.797 37.8616C330.444 35.9818 335.487 35.042 340.925 35.042C346.264 35.042 351.207 35.9324 355.755 37.7132C360.402 39.494 364.357 42.0168 367.62 45.2816C370.981 48.5464 373.601 52.4542 375.48 57.0052C377.457 61.5561 378.446 66.5522 378.446 71.9936V75.4068H318.53ZM361.687 64.2768C360.402 59.6269 357.98 55.818 354.42 52.85C350.861 49.882 346.363 48.398 340.925 48.398C335.586 48.398 331.038 49.882 327.281 52.85C323.523 55.719 320.953 59.528 319.569 64.2768H361.687Z" fill="#2C2C2C"/>
<path d="M215.378 140.169V36.5289H230.575V52.2905C231.766 49.5149 233.306 47.0862 235.193 45.0045C237.18 42.8236 239.414 40.9897 241.897 39.5028C244.48 38.0159 247.211 36.9254 250.092 36.2315C252.972 35.4385 255.902 35.042 258.882 35.042C263.451 35.042 267.722 35.9341 271.695 37.7185C275.668 39.5028 279.094 42.0306 281.975 45.3019C284.855 48.5732 287.14 52.4888 288.828 57.0488C290.517 61.5096 291.361 66.4661 291.361 71.9182C291.361 77.3703 290.517 82.426 288.828 87.0846C287.14 91.7446 284.756 95.7586 281.677 99.1296C278.598 102.5 274.923 105.127 270.652 107.011C266.381 108.894 261.663 109.836 256.498 109.836C253.816 109.836 251.184 109.39 248.602 108.497C246.019 107.704 243.636 106.614 241.45 105.226C239.265 103.838 237.279 102.203 235.491 100.319C233.703 98.3366 232.213 96.2546 231.021 94.0736V140.169H215.378ZM253.071 96.3046C256.448 96.3046 259.478 95.6596 262.16 94.3706C264.941 93.0826 267.275 91.3976 269.162 89.3156C271.148 87.1346 272.638 84.6066 273.631 81.7321C274.724 78.8573 275.27 75.8338 275.27 72.6617C275.27 69.3904 274.724 66.3174 273.631 63.4426C272.638 60.5679 271.148 58.0896 269.162 56.0079C267.275 53.827 264.99 52.1418 262.309 50.9523C259.627 49.6636 256.597 49.0192 253.22 49.0192C249.843 49.0192 246.764 49.6636 243.983 50.9523C241.202 52.1418 238.818 53.827 236.832 56.0079C234.945 58.1887 233.455 60.7166 232.362 63.5913C231.369 66.4661 230.872 69.4895 230.872 72.6617C230.872 75.8338 231.369 78.8573 232.362 81.7321C233.455 84.6066 234.945 87.1346 236.832 89.3156C238.818 91.3976 241.153 93.0826 243.834 94.3706C246.615 95.6596 249.694 96.3046 253.071 96.3046Z" fill="#2C2C2C"/>
<path d="M157.745 71.6713L130.719 36.4307H148.687L166.804 60.0732L184.92 36.4307H202.888L175.565 71.6713L203.928 108.25H185.663L166.804 83.2695L147.648 108.25H129.68L157.745 71.6713Z" fill="#2C2C2C"/>
</g>
<defs>
<clipPath id="clip0_367_183">
<rect width="564" height="140" fill="white"/>
</clipPath>
</defs>
</svg>
