<svg xmlns="http://www.w3.org/2000/svg" viewBox="0.5 0.5 999 699.242"><path fill="#00A1E0" d="M416.2 76.8c32.2-33.57 77.1-54.4 126.7-54.4 65.9 0 123.48 36.8 154.12 91.4 26.6-11.9 56.1-18.5 87.1-18.5 118.94 0 215.4 97.3 215.4 217.2 0 120.0-96.4 217.3-215.4 217.3a213.7 213.7 0 0 1-42.4-4.2c-27.0 48.1-78.4 80.6-137.4 80.6-24.7 0-48.1-5.7-68.9-15.9-27.4 64.3-91.1 109.4-165.3 109.4-77.3 0-143.3-48.9-168.6-117.6-11.1 2.3-22.5 3.6-34.3 3.6C75.2 585.74.5 510.3.5 417.3c0-62.4 33.5-116.8 83.4-145.9-10.26-23.6-16.0-49.7-16.0-77.06C67.9 87.25 154.79.5 261.9.5c62.9 0 118.8 29.9 154.3 76.3"/><path fill="#FFF" d="M145.2 363.11c-.626 1.6.228 2.0.427 2.3 1.9 1.4 3.8 2.3 5.7 3.4 10.2 5.4 19.81 7.0 29.9 7.0 20.5 0 33.2-10.9 33.2-28.4v-.341c0-16.2-14.4-22.1-27.8-26.37l-1.75-.569c-10.2-3.3-18.9-6.1-18.9-12.8v-.355c0-5.7 5.1-9.9 13.1-9.9 8.8 0 19.3 2.9 26.0 6.66 0 0 2.0 1.3 2.7-.64.4-1.0 3.8-10.2 4.17-11.2.384-1.1-.299-1.9-.996-2.3-7.7-4.7-18.3-7.9-29.4-7.9l-2.0.014c-18.8 0-31.8 11.3-31.8 27.6v.342c0 17.1 14.4 22.7 28.0 26.54l2.2.669c9.9 3.0 18.4 5.6 18.4 12.58v.342c0 6.3-5.5 11.1-14.43 11.1-3.5 0-14.5-.071-26.4-7.6-1.4-.84-2.3-1.5-3.4-2.12-.583-.37-2.0-1.0-2.7.925l-4.0 11.2zM445.2 363.11c-.626 1.6.228 2.0.427 2.3 1.9 1.4 3.8 2.3 5.7 3.4 10.2 5.4 19.8 7.0 29.9 7.0 20.5 0 33.2-10.9 33.2-28.4v-.341c0-16.2-14.4-22.1-27.8-26.37l-1.75-.569c-10.2-3.3-18.9-6.1-18.9-12.8v-.355c0-5.7 5.1-9.9 13.1-9.9 8.8 0 19.3 2.9 26.0 6.66 0 0 2.0 1.3 2.7-.64.4-1.0 3.8-10.2 4.17-11.2.385-1.1-.299-1.9-.996-2.3-7.7-4.7-18.3-7.9-29.4-7.9l-2.5.0c-18.8 0-31.8 11.3-31.8 27.6v.342c0 17.1 14.4 22.7 28.0 26.54l2.2.669c9.9 3.0 18.4 5.6 18.4 12.58v.342c0 6.3-5.5 11.1-14.4 11.1-3.5 0-14.5-.071-26.4-7.6-1.4-.84-2.3-1.4-3.4-2.12-.371-.242-2.1-.911-2.7.925l-4.0 11.2zM650.0 328.74c0 9.9-1.85 17.7-5.5 23.3-3.6 5.5-9.1 8.1-16.6 8.1-7.6 0-13.0-2.6-16.6-8.1-3.6-5.5-5.4-13.3-5.4-23.3 0-9.9 1.82-17.7 5.4-23.2 3.5-5.4 9.0-8.04 16.6-8.04 7.6 0 13.0 2.6 16.7 8.04 3.6 5.5 5.5 13.3 5.5 23.2m17.1-18.4c-1.68-5.7-4.3-10.7-7.8-14.9-3.5-4.2-7.9-7.5-13.1-9.99-5.2-2.4-11.4-3.7-18.3-3.7-6.9 0-13.1 1.2-18.3 3.7-5.2 2.4-9.6 5.8-13.1 9.99-3.5 4.2-6.1 9.2-7.8 14.9-1.7 5.6-2.5 11.8-2.5 18.4s.84 12.8 2.5 18.4c1.7 5.7 4.3 10.7 7.8 14.9 3.5 4.2 7.9 7.5 13.1 9.9 5.2 2.4 11.4 3.6 18.3 3.6 6.93 0 13.1-1.2 18.3-3.6 5.2-2.4 9.6-5.7 13.1-9.9 3.5-4.17 6.1-9.2 7.8-14.9 1.68-5.6 2.5-11.84 2.5-18.4s-.841-12.7-2.52-18.4M807.6 357.47c-.569-1.7-2.2-1.0-2.2-1.0-2.50.0-5.1 1.8-8.0 2.3-2.9.44-6.0.669-9.4.669-8.3 0-14.9-2.5-19.6-7.3-4.7-4.9-7.4-12.7-7.3-23.4.029-9.7 2.4-17.0 6.6-22.5 4.17-5.5 10.5-8.4 19.0-8.4 7.1 0 12.4.811 18.1 2.59 0 0 1.4.583 2.0-1.2 1.5-4.2 2.6-7.13 4.2-11.7.456-1.3-.654-1.85-1.1-2.0-2.22-.868-7.5-2.3-11.4-2.9-3.7-.569-8.0-.868-12.8-.868-7.2 0-13.6 1.2-19.1 3.7-5.5 2.4-10.1 5.8-13.8 10.0-3.7 4.2-6.5 9.2-8.3 14.9-1.85 5.6-2.8 11.9-2.8 18.4 0 14.2 3.8 25.7 11.4 34.1 7.57 8.4 18.9 12.7 33.77 12.7 8.8 0 17.76-1.8 24.2-4.3 0 0 1.2-.598.7-2.0l-4.2-11.6zM837.5 319.2c.811-5.5 2.3-10.09 4.7-13.7 3.5-5.4 9.0-8.4 16.6-8.4s12.6 3.0 16.2 8.4c2.4 3.6 3.43 8.4 3.8 13.7h-41.3zm57.6-12.1c-1.5-5.5-5.1-11.0-7.4-13.5-3.7-4.0-7.4-6.8-11.0-8.4-4.7-2.0-10.4-3.4-16.6-3.4-7.2 0-13.79 1.21-19.1 3.7-5.3 2.5-9.8 5.9-13.3 10.2-3.5 4.24-6.2 9.3-7.8 15.0-1.7 5.7-2.5 11.9-2.5 18.5 0 6.7.883 12.9 2.6 18.5 1.8 5.6 4.6 10.6 8.4 14.7 3.8 4.1 8.7 7.4 14.6 9.6 5.8 2.2 12.9 3.4 21.0 3.4 16.7-.057 25.53-3.8 29.2-5.8.641-.355 1.3-.981.5-2.8l-3.8-10.6c-.568-1.6-2.2-.996-2.2-.996-4.1 1.5-10.0 4.3-23.8 4.27-9.0-.014-15.64-2.7-19.81-6.8-4.3-4.24-6.4-10.5-6.7-19.3l57.9.057s1.5-.028 1.68-1.5c.057-.624 2.0-11.9-1.7-24.9M373.8 319.2c.825-5.5 2.3-10.09 4.7-13.7 3.5-5.4 9.0-8.4 16.55-8.4s12.6 3.0 16.2 8.4c2.4 3.6 3.4 8.4 3.8 13.7h-41.3zm57.6-12.1c-1.5-5.5-5.0-11.0-7.4-13.5-3.7-4.0-7.4-6.8-11.0-8.4-4.7-2.0-10.4-3.4-16.6-3.4-7.2 0-13.79 1.21-19.1 3.7-5.3 2.5-9.8 5.9-13.3 10.2-3.5 4.24-6.2 9.3-7.8 15.0-1.7 5.7-2.5 11.9-2.5 18.5 0 6.7.882 12.9 2.6 18.5 1.8 5.6 4.6 10.6 8.4 14.7 3.8 4.1 8.7 7.4 14.6 9.6 5.8 2.2 12.9 3.4 21.0 3.4 16.7-.057 25.53-3.8 29.2-5.8.641-.355 1.3-.981.5-2.8l-3.8-10.6c-.584-1.6-2.2-.996-2.2-.996-4.1 1.5-10.0 4.3-23.78 4.27-9.0-.014-15.6-2.7-19.8-6.8-4.3-4.24-6.4-10.5-6.7-19.3l57.9.057s1.5-.028 1.7-1.5c.055-.624 1.99-11.9-1.7-24.9M248.6 357.2c-2.3-1.8-2.6-2.3-3.3-3.43-1.1-1.8-1.7-4.3-1.7-7.5 0-5.1 1.7-8.8 5.2-11.2-.42.0 5.0-4.34 16.8-4.2 8.3.114 15.71 1.3 15.71 1.3v26.3h.014s-7.4 1.6-15.6 2.1c-11.8.712-17.02-3.4-17.0-3.4m23.0-40.7c-2.3-.171-5.4-.271-9.0-.271-5.0 0-9.8.626-14.3 1.8-4.5 1.2-8.6 3.1-12.1 5.6a27.9 27.9 0 0 0-8.4 9.5c-2.0 3.8-3.1 8.3-3.1 13.3 0 5.1.882 9.6 2.6 13.2 1.8 3.7 4.3 6.7 7.6 9.1 3.2 2.3 7.2 4.1 11.8 5.1 4.54 1.0 9.7 1.6 15.3 1.6 5.9 0 11.9-.483 17.6-1.5 5.7-.968 12.7-2.4 14.6-2.8a146.25 146.25 0 0 0 4.1-1.0c1.4-.355 1.3-1.9 1.3-1.9l-.029-53.0c0-11.6-3.1-20.2-9.2-25.6-6.1-5.3-15.0-8.0-26.6-8.0-4.3 0-11.3.599-15.5 1.4 0 0-12.7 2.4-17.86 6.5 0 0-1.1.712-.512 2.3l4.1 11.0c.512 1.4 1.9.939 1.9.939s.441-.172.0-.47c11.1-6.1 25.2-5.9 25.2-5.9 6.3 0 11.1 1.3 14.3 3.7 3.2 2.4 4.8 6.1 4.8 13.8v2.4c-5.0-.711-9.5-1.1-9.5-1.1M738.7 286.6c.44-1.31-.484-1.9-.869-2.1-.981-.384-5.9-1.4-9.7-1.7-7.3-.441-11.3.783-14.9 2.4-3.6 1.6-7.57 4.24-9.8 7.2v-7.0c0-.982-.697-1.8-1.7-1.8h-14.8c-.967 0-1.7.782-1.7 1.8v86.4c0 .968.8 1.8 1.8 1.8h15.2a1.76 1.76 0 0 0 1.75-1.8v-43.1c0-5.8.641-11.6 1.9-15.2 1.3-3.6 2.96-6.5 5.1-8.5 2.12-2.0 4.5-3.5 7.2-4.3 2.7-.826 5.7-1.1 7.77-1.1 3.0 0 6.4.782 6.4.782 1.1.128 1.7-.555 2.1-1.6.997-2.6 3.8-10.6 4.4-12.2"/><path fill="#FFF" d="M595.9 246.6c-1.85-.569-3.5-.954-5.7-1.4-2.2-.398-4.9-.598-7.9-.598-10.5 0-18.7 2.96-24.52 8.8-5.8 5.8-9.7 14.6-11.6 26.3l-.712 3.9h-13.1s-1.6-.057-1.9 1.68l-2.1 12.1c-.157 1.1.342 1.9 1.9 1.9h12.8l-13.0 72.5c-1.0 5.8-2.2 10.6-3.5 14.3-1.3 3.6-2.5 6.3-4.0 8.24-1.48 1.9-2.9 3.3-5.3 4.1-2.0.669-4.3.982-6.8.982-1.4 0-3.3-.229-4.6-.513-1.4-.271-2.1-.569-3.1-1.0 0 0-1.5-.568-2.1.926-.47 1.2-3.9 10.6-4.3 11.8-.398 1.2.171 2.0.896 2.3 1.7.598 3.0.996 5.3 1.6 3.2.755 5.9.797 8.5.797 5.3 0 10.2-.754 14.2-2.2 4.0-1.5 7.57-4.0 10.7-7.5 3.4-3.7 5.5-7.6 7.5-13.0 2.0-5.3 3.7-11.8 5.1-19.4l13.05-73.8h19.1s1.6.057 1.9-1.7l2.2-12.0c.143-1.2-.341-1.9-1.9-1.9h-18.5c.1-.412.9-6.9 3.06-13.1.911-2.6 2.6-4.7 4.1-6.2 1.4-1.4 3.06-2.4 4.9-3.0 1.8-.598 3.9-.882 6.2-.882 1.7 0 3.5.199 4.8.469 1.8.385 2.49.6 3.0.727 1.9.569 2.1.014 2.5-.896l4.4-12.2c.455-1.3-.669-1.9-1.1-2.0M337.2 371.8c0 .968-.697 1.8-1.7 1.8h-15.4c-.968 0-1.7-.783-1.7-1.8v-123.58c0-.967.7-1.75 1.7-1.75h15.4c.968 0 1.7.783 1.7 1.75v123.58z"/></svg>