<svg viewBox="6.20856283 .64498824 244.26943717 251.24701176" xmlns="http://www.w3.org/2000/svg"><path d="m191.4 85.7v-29.5a22.7 22.7 0 0 0 13.1-20.48v-.677c0-12.5-10.2-22.7-22.7-22.7h-.678c-12.5 0-22.7 10.2-22.7 22.7v.677a22.7 22.7 0 0 0 13.1 20.48v29.5a64.3 64.3 0 0 0 -30.6 13.47l-80.9-63.03c.577-2.1.878-4.2.912-6.4a25.6 25.6 0 1 0 -25.6 25.55 25.3 25.3 0 0 0 12.6-3.43l79.7 62.0c-14.65 22.1-14.3 51.0.987 72.7l-24.2 24.2c-1.96-.626-4-.959-6.1-.987-11.6.01-21.01 9.4-21.0 21.3.0 11.6 9.4 21.0 21.0 21.0 11.6.003 21.02-9.4 21.03-21.0a20.7 20.7 0 0 0 -.988-6.1l24.0-24.0c21.4 16.5 50.8 17.9 73.8 3.6 22.9-14.4 34.5-41.4 29.0-67.9-5.49-26.5-26.9-46.7-53.6-50.8m-9.9 97.0a33.17 33.17 0 1 1 0-66.3c17.85.6 32 15.3 32.01 33.1.008 17.86-14.1 32.5-32.0 33.2" fill="#ff7a59"/></svg>