<?xml version="1.0" encoding="UTF-8"?>
<svg id="Layer_1" data-name="Layer 1" xmlns="http://www.w3.org/2000/svg" viewBox="0 0 500 555">
  <defs>
    <style>
      .cls-1 {
        fill: #ec008c;
      }
    </style>
  </defs>
  <path class="cls-1" d="M107.69,452.81l141.85-141.85,142.77,142.77c-.71,7.57-3.97,14.95-9.76,20.75-13.22,13.22-34.65,13.22-47.87,0l-87.28-87.28-82.63,82.63c-13.22,13.22-34.65,13.22-47.87,0-4.84-4.84-7.91-10.78-9.2-17.02Z"/>
  <path class="cls-1" d="M381.91,264.72c6.41-16.17,9.94-33.81,9.94-52.26,0-78.34-63.51-141.85-141.85-141.85s-141.85,63.51-141.85,141.85c0,18.46,3.52,36.09,9.94,52.26h63.41c-10.88-14.48-17.35-32.6-17.35-52.26,0-47.42,37.6-85.86,83.99-85.86s83.99,38.44,83.99,85.86c0,19.67-6.47,37.79-17.35,52.26h67.14Z"/>
  <path class="cls-1" d="M417.98,381.45h-30.94l-67.19-67.19h98.13c18.55,0,33.6,15.04,33.6,33.6s-15.04,33.6-33.6,33.6Z"/>
  <path class="cls-1" d="M173.52,314.26h-91.5c-18.55,0-33.6,15.04-33.6,33.6s15.04,33.6,33.6,33.6h24.31l67.19-67.19Z"/>
</svg>